# File created by Blade
# Date/Time:  Thu Jan 22 19:49:01 2015
# Frame Rate: 120.000 fps
#------------------------------------------------------
:FULLY-SPECIFIED
:DEGREES
2287
root -1.724824 3.029795 -9.906687 -25.412376 -6.566878 -10.495236
RightUpLeg -92.322466 32.489218 58.995222
RightLeg 124.868484 -0.000000 -0.000000
RightFoot 16.637493 -16.704219 -14.768270
RightToeBase -15.205262 -0.000000 0.000000
LeftUpLeg -65.432323 -8.612111 11.944297
LeftLeg 6.543315 -0.000000 -0.000000
LeftFoot 11.459930 -5.471437 -2.273616
LeftToeBase -19.432144 -0.000000 0.000000
Spine 37.910930 -11.100036 4.836377
RightShoulder -11.018083 -20.106740 -5.792700
RightArm 18.208343 -33.093217 74.190972
RightForeArm -0.567549 -0.000000 12.354903
RightHand 24.889174 -0.000000 -67.677759
RightHandThumb1 -24.326973 -0.000000 -32.862282
LeftShoulder -12.170308 -0.318279 19.093395
LeftArm 8.036279 21.966731 -83.105368
LeftForeArm 9.833560 -0.000000 89.872121
LeftHand -7.236304 -0.000000 -6.939658
LeftHandThumb1 -26.253704 0.000000 33.147579
Head 0.131378 5.318220 7.092521
2288
root -1.719173 3.031201 -9.898063 -25.311358 -6.530472 -10.496742
RightUpLeg -92.319380 32.483923 58.828243
RightLeg 124.763726 -0.000000 -0.000000
RightFoot 16.209230 -16.673939 -14.781914
RightToeBase -14.644522 -0.000000 0.000000
LeftUpLeg -65.522107 -8.553989 11.829933
LeftLeg 6.543021 -0.000000 -0.000000
LeftFoot 11.157054 -5.253285 -2.728454
LeftToeBase -19.632373 -0.000000 0.000000
Spine 37.814052 -11.057147 4.705642
RightShoulder -11.061480 -20.020499 -5.684699
RightArm 18.201402 -33.083614 74.170782
RightForeArm -0.807996 -0.000000 12.197573
RightHand 24.719028 0.000000 -67.281631
RightHandThumb1 -24.326973 -0.000000 -32.862282
LeftShoulder -12.118265 -0.392589 19.088333
LeftArm 8.080891 21.914822 -83.010530
LeftForeArm 10.024684 -0.000000 89.694667
LeftHand -7.160976 -0.000000 -7.181975
LeftHandThumb1 -26.253704 0.000000 33.147579
Head 0.222108 5.152411 7.265585
2289
root -1.713094 3.031884 -9.891250 -25.218788 -6.486114 -10.462775
RightUpLeg -92.288554 32.461085 58.649006
RightLeg 124.661232 -0.000000 -0.000000
RightFoot 15.674477 -16.610441 -14.765279
RightToeBase -13.693251 -0.000000 0.000000
LeftUpLeg -65.584144 -8.500956 11.669003
LeftLeg 6.504583 -0.000000 -0.000000
LeftFoot 10.870266 -4.984419 -2.889445
LeftToeBase -20.552248 -0.000000 0.000000
Spine 37.733343 -10.959876 4.556240
RightShoulder -11.168126 -20.029057 -5.536494
RightArm 18.328587 -33.099656 74.083157
RightForeArm -0.972723 -0.000000 12.024190
RightHand 24.684637 -0.000000 -66.799329
RightHandThumb1 -24.326973 -0.000000 -32.862282
LeftShoulder -12.093285 -0.416144 19.095583
LeftArm 8.261842 21.942223 -82.863837
LeftForeArm 9.990905 -0.000000 89.474511
LeftHand -7.151090 -0.000000 -7.156221
LeftHandThumb1 -26.253704 0.000000 33.147579
Head 0.277302 4.979421 7.432056
2290
root -1.706527 3.032321 -9.886370 -25.143898 -6.413317 -10.415431
RightUpLeg -92.267374 32.422946 58.462061
RightLeg 124.553151 -0.000000 -0.000000
RightFoot 15.210200 -16.577383 -14.795287
RightToeBase -13.263002 -0.000000 0.000000
LeftUpLeg -65.626938 -8.498614 11.540919
LeftLeg 6.459052 -0.000000 -0.000000
LeftFoot 10.461915 -4.709795 -3.254282
LeftToeBase -19.860254 -0.000000 0.000000
Spine 37.682757 -10.874681 4.383828
RightShoulder -11.245586 -20.032873 -5.402118
RightArm 18.429906 -33.126847 74.009715
RightForeArm -1.098322 -0.000000 11.907416
RightHand 24.566251 0.000000 -66.335170
RightHandThumb1 -24.326973 -0.000000 -32.862282
LeftShoulder -12.025033 -0.540000 19.093096
LeftArm 8.306700 21.920886 -82.736838
LeftForeArm 10.095401 -0.000000 89.288957
LeftHand -7.160846 -0.000000 -7.288369
LeftHandThumb1 -26.253704 0.000000 33.147579
Head 0.281375 4.783611 7.573847
2291
root -1.703673 3.035055 -9.884345 -25.090337 -6.351837 -10.384999
RightUpLeg -92.229269 32.361582 58.256477
RightLeg 124.440309 -0.000000 -0.000000
RightFoot 14.657957 -16.462702 -14.854883
RightToeBase -12.870227 -0.000000 0.000000
LeftUpLeg -65.619073 -8.477061 11.411864
LeftLeg 6.359992 -0.000000 -0.000000
LeftFoot 10.114992 -4.437732 -3.524980
LeftToeBase -20.900727 -0.000000 0.000000
Spine 37.662200 -10.654354 4.288378
RightShoulder -11.436415 -19.997937 -5.226104
RightArm 18.454511 -33.136732 73.995089
RightForeArm -1.224827 0.000000 11.825267
RightHand 24.388846 -0.000000 -65.702811
RightHandThumb1 -24.326973 -0.000000 -32.862282
LeftShoulder -11.803717 -0.743408 19.127028
LeftArm 8.282622 21.854586 -82.683523
LeftForeArm 10.075188 -0.000000 89.123819
LeftHand -7.127605 -0.000000 -7.487878
LeftHandThumb1 -26.253704 0.000000 33.147579
Head 0.240567 4.456867 7.794245
2292
root -1.702530 3.035290 -9.882169 -25.007424 -6.270598 -10.315780
RightUpLeg -92.193256 32.314593 58.024509
RightLeg 124.308885 -0.000000 -0.000000
RightFoot 14.077713 -16.405027 -14.811608
RightToeBase -12.434689 -0.000000 0.000000
LeftUpLeg -65.615455 -8.439464 11.216784
LeftLeg 6.216238 -0.000000 -0.000000
LeftFoot 9.715452 -4.160796 -3.793275
LeftToeBase -20.344261 -0.000000 0.000000
Spine 37.607848 -10.546867 4.074032
RightShoulder -11.533446 -19.989089 -5.099569
RightArm 18.571759 -33.298536 73.902238
RightForeArm -1.319329 -0.000000 11.725134
RightHand 24.332551 -0.000000 -64.952559
RightHandThumb1 -24.326973 -0.000000 -32.862282
LeftShoulder -11.738000 -0.872328 19.145981
LeftArm 8.298764 21.835323 -82.595298
LeftForeArm 10.020033 -0.000000 88.891661
LeftHand -6.992415 -0.000000 -7.375856
LeftHandThumb1 -26.253704 0.000000 33.147579
Head 0.258608 4.254113 7.961056
2293
root -1.703488 3.035251 -9.880102 -24.933793 -6.159808 -10.245588
RightUpLeg -92.175458 32.288121 57.775772
RightLeg 124.171714 -0.000000 -0.000000
RightFoot 13.566332 -16.392299 -14.910412
RightToeBase -11.900949 -0.000000 0.000000
LeftUpLeg -65.585842 -8.397923 10.958384
LeftLeg 6.035268 -0.000000 -0.000000
LeftFoot 9.333571 -3.862290 -4.208141
LeftToeBase -19.948224 -0.000000 0.000000
Spine 37.564306 -10.433563 3.845282
RightShoulder -11.628915 -19.999010 -4.967341
RightArm 18.669197 -33.371055 73.858047
RightForeArm -1.515167 -0.000000 11.651236
RightHand 24.093500 -0.000000 -64.293148
RightHandThumb1 -24.326973 -0.000000 -32.862282
LeftShoulder -11.686510 -1.019030 19.165781
LeftArm 8.319454 21.785599 -82.538372
LeftForeArm 10.096174 -0.000000 88.676619
LeftHand -7.015039 0.000000 -7.540758
LeftHandThumb1 -26.253704 0.000000 33.147579
Head 0.240646 3.986675 8.158966
2294
root -1.705178 3.034696 -9.878484 -24.864590 -6.047240 -10.161914
RightUpLeg -92.159132 32.255511 57.491923
RightLeg 124.035001 -0.000000 -0.000000
RightFoot 13.001505 -16.330660 -14.937898
RightToeBase -11.392410 -0.000000 0.000000
LeftUpLeg -65.519178 -8.315481 10.608634
LeftLeg 5.803624 -0.000000 -0.000000
LeftFoot 8.919586 -3.568476 -4.513799
LeftToeBase -20.064251 -0.000000 0.000000
Spine 37.538083 -10.303762 3.612732
RightShoulder -11.749960 -19.962788 -4.865345
RightArm 18.710080 -33.445948 73.874310
RightForeArm -1.773426 -0.000000 11.604875
RightHand 23.910839 -0.000000 -63.487227
RightHandThumb1 -24.326973 -0.000000 -32.862282
LeftShoulder -11.649311 -1.079570 19.129591
LeftArm 8.441739 21.693350 -82.467279
LeftForeArm 10.098109 -0.000000 88.472686
LeftHand -7.029190 0.000000 -7.681984
LeftHandThumb1 -26.253704 0.000000 33.147579
Head 0.192602 3.692460 8.324897
2295
root -1.708094 3.032589 -9.876053 -24.776733 -5.915570 -10.075773
RightUpLeg -92.178242 32.247029 57.189176
RightLeg 123.924165 -0.000000 -0.000000
RightFoot 12.390910 -16.288212 -14.887119
RightToeBase -10.802443 -0.000000 0.000000
LeftUpLeg -65.450728 -8.234449 10.225884
LeftLeg 5.544715 -0.000000 -0.000000
LeftFoot 8.517657 -3.276056 -4.809753
LeftToeBase -20.372211 -0.000000 0.000000
Spine 37.490065 -10.256856 3.322490
RightShoulder -11.800252 -19.952797 -4.806334
RightArm 18.791120 -33.535855 73.890433
RightForeArm -1.998474 -0.000000 11.554326
RightHand 23.724182 0.000000 -62.638914
RightHandThumb1 -24.326973 -0.000000 -32.862282
LeftShoulder -11.686069 -1.104403 19.075781
LeftArm 8.509852 21.625593 -82.390458
LeftForeArm 10.129421 -0.000000 88.326615
LeftHand -7.044228 0.000000 -7.604452
LeftHandThumb1 -26.253704 0.000000 33.147579
Head 0.167463 3.518195 8.475198
2296
root -1.713941 3.029865 -9.874272 -24.676844 -5.804808 -10.020104
RightUpLeg -92.168169 32.239850 56.973564
RightLeg 123.790571 -0.000000 -0.000000
RightFoot 11.898476 -16.279989 -14.985518
RightToeBase -10.527902 -0.000000 0.000000
LeftUpLeg -65.412588 -8.140366 9.881107
LeftLeg 5.317765 -0.000000 -0.000000
LeftFoot 8.071540 -2.918579 -5.210137
LeftToeBase -20.301438 -0.000000 0.000000
Spine 37.433372 -10.203269 3.089396
RightShoulder -11.856155 -19.993696 -4.762857
RightArm 18.927087 -33.700650 73.865280
RightForeArm -2.168628 0.000000 11.546610
RightHand 23.296765 0.000000 -61.860087
RightHandThumb1 -24.326973 -0.000000 -32.862282
LeftShoulder -11.715361 -1.221673 19.014416
LeftArm 8.446483 21.510235 -82.396002
LeftForeArm 10.137027 -0.000000 88.232576
LeftHand -7.127126 0.000000 -7.727113
LeftHandThumb1 -26.253704 0.000000 33.147579
Head 0.113163 3.305182 8.611767
